# xmcd
#
# Track frame offsets: 
#        151
#        16397
#        39942
#        58496
#        75357
#        98230
#        112904
#        128276
#        143203
#        164769
#        182494
#        204967
#        220093
#        237347
#        256701
#        268067
#        284231
#
# Disc length: 4044 seconds
#
# Revision: 0
# Processed by: cddbd v1.5PL3 Copyright (c) Steve Scherf et al.
# Submitted via: ExactAudioCopy v0.90b4
#
DISCID=ec0fca11
DTITLE=Emmylou Harris - The Road I Am Taking (Collected Songs)
DYEAR=1900
DGENRE=Country
TTITLE0=Heaven Only Knows
TTITLE1=Michelangelo
TTITLE2=Woman Walk The Line
TTITLE3=Born To Run
TTITLE4=A River For Him
TTITLE5=In My Dreams
TTITLE6=All I Left Behind
TTITLE7=Raise The Dead
TTITLE8=I Don't Wanna Talk About It
TTITLE9=Sweet Dreams Of You
TTITLE10=Hour Of Gold
TTITLE11=Sweetheart Of The Pines
TTITLE12=Boy From Tupelo
TTITLE13=Red Dirt Girl
TTITLE14=Heart To Heart
TTITLE15=Sweet Spot
TTITLE16=Prayer In Open D
EXTD=
EXTT0=
EXTT1=
EXTT2=
EXTT3=
EXTT4=
EXTT5=
EXTT6=
EXTT7=
EXTT8=
EXTT9=
EXTT10=
EXTT11=
EXTT12=
EXTT13=
EXTT14=
EXTT15=
EXTT16=
PLAYORDER=
